<svg id="Layer_1" data-name="Layer 1" xmlns="http://www.w3.org/2000/svg" viewBox="0 0 419.98 767.34"><defs><style>.cls-1{fill:#673481;}.cls-2{fill:#1896c7;}.cls-3{fill:#c7a669;}.cls-4{fill:#a17939;}</style></defs><rect class="cls-1" x="97.38" y="261.53" width="160.56" height="231.11"/><path class="cls-1" d="M183.32,27.37c38.59,0,77.28,11.79,108.56,35.44,39,29.87,55.75,74.33,46.52,122.76-5.66,34.44-18.57,66.78-30.17,99.09l49.47,15.47-70.14,47.6-47.33,32.12-1.94,1.32-.53-1.38L214,318.11l-27.63-71.57,51.2,16L239,263c14.62-31.29,30.6-61,39-93.3,7.32-25.78,0-48.53-19.53-66.92-24.26-22.31-58.05-33.86-91.57-33.86a139.53,139.53,0,0,0-38.4,5.29c-29.93,8.2-59.24,26.63-71.81,55.64a80.59,80.59,0,0,0-6.2,37.29C55.39,223.46,84.12,274.9,96,330c3.91,17.66,6.1,35.75,5.47,53.69-2.21-36-15.61-69.44-30.39-101.86-16.38-36.25-35.19-72.24-42.24-112.19-6.47-37.69,8.71-74.12,37-99.19,32.37-28.68,74.89-43.06,117.52-43.06M420,290.94,365.86,274l-22.14-6.92c8.77-24.42,17.15-49.69,21.63-76.74,11.07-58.75-9.63-113.14-56.83-149.27l-.07,0-.06-.05C273.43,14.55,229,0,183.32,0h0C132.18,0,84,17.74,47.65,49.94c-36.48,32.37-53.6,78.83-45.8,124.3,6.58,37.29,21.79,70.13,36.5,101.9,2.62,5.65,5.23,11.29,7.78,16.94,15.52,34,26.2,62.72,28,92.27l54.67-.73c.65-18.86-1.39-39.2-6.08-60.46-5.3-24.53-13.54-47.94-21.52-70.58-10.71-30.4-20.83-59.12-23.42-88.5a53.06,53.06,0,0,1,4-24.22c7.85-18.13,28-33.13,54-40.25l.15,0,.15,0a112.1,112.1,0,0,1,30.87-4.24c28,0,54.53,9.68,72.93,26.54,12.56,11.86,16.21,24,11.84,39.4l-.08.28-.07.29c-5.85,22.39-16.07,44.13-27,67l-30-9.38L140.37,203.5l20.42,52.9L188.42,328l23.81,61.69.53,1.38,12.4,32.13"/><path class="cls-2" d="M308.23,482.68l49.47-15.47-70.14-47.6-47.33-32.12-1.94-1.32-.53,1.38L214,449.24,186.32,520.8l51.2-16,1.46-.46c14.62,31.29,30.6,61,39,93.3,7.32,25.79,0,48.53-19.53,66.92-33.7,31-85.78,41.23-130,28.58-29.93-8.21-59.24-26.64-71.81-55.65a80.59,80.59,0,0,1-6.2-37.29C55.39,543.88,84.12,492.44,96,437.37c3.91-17.66,6.1-35.76,5.47-53.7-2.21,36-15.61,69.44-30.39,101.86-16.38,36.26-35.19,72.24-42.24,112.2-6.47,37.68,8.71,74.12,37,99.19,61.69,54.65,160.25,57.37,226.08,7.61,39-29.87,55.75-74.33,46.52-122.76C332.74,547.33,319.83,515,308.23,482.68Z"/><path class="cls-1" d="M101.46,383.67c.63,17.94-1.56,36-5.47,53.7C84.12,492.44,55.39,543.88,50.5,600.19a80.59,80.59,0,0,0,6.2,37.29c12.57,29,41.88,47.44,71.81,55.65a139.86,139.86,0,0,0,38.4,5.29c33.52,0,67.31-11.56,91.57-33.87C278,646.16,285.33,623.42,278,597.63c-8.43-32.27-24.41-62-39-93.3l-1.46.46-51.2,16L214,449.23l23.81-61.68.53-1.38,1.94,1.32,47.33,32.12,70.14,47.6-49.47,15.47c11.6,32.31,24.51,64.65,30.17,99.09,9.23,48.43-7.5,92.89-46.52,122.76-31.29,23.65-70,35.44-108.56,35.44-42.62,0-85.15-14.38-117.52-43.05-28.26-25.07-43.44-61.51-37-99.19,7.05-40,25.86-75.94,42.24-112.2,14.78-32.42,28.18-65.89,30.39-101.86m123.7-39.49-12.4,32.14-.54,1.38-23.8,61.68-27.63,71.56-20.42,52.9,54.12-16.92,30-9.38c11,22.87,21.19,44.62,27,67l.07.28.08.29c4.37,15.38.72,27.53-11.84,39.39-18.41,16.87-45,26.54-72.93,26.54A112.47,112.47,0,0,1,136,666.82l-.15-.05-.15,0c-26-7.12-46.13-22.12-53.93-40.13a53.17,53.17,0,0,1-4-24.33c2.59-29.39,12.71-58.1,23.42-88.5,8-22.64,16.22-46,21.52-70.58,4.69-21.26,6.73-41.6,6.08-60.47L74.15,382c-1.82,29.56-12.5,58.23-28,92.19-2.59,5.73-5.2,11.37-7.82,17C23.64,523,8.43,555.82,1.88,593c-7.83,45.6,9.29,92.07,45.75,124.42s84.55,50,135.69,50c45.69,0,90.11-14.55,125.07-41l.06-.05.07,0c47.2-36.13,67.9-90.52,56.83-149.27-4.48-27-12.86-52.32-21.63-76.73l22.14-6.93L420,476.41l-46.91-31.85L302.93,397,255.6,364.84l-1.94-1.31-28.5-19.35Z"/><path class="cls-3" d="M188.74,327.84l-27.62-71.57L141,204.05l53.43,16.71,30.29,9.47c11-23,21.31-44.84,27.18-67.35l.08-.28.08-.28c4.41-15.52.73-27.78-11.94-39.74C221.61,105.65,195,95.94,166.91,95.94a112.49,112.49,0,0,0-31,4.25l-.14,0-.15,0c-26.07,7.15-46.31,22.23-54.16,40.33l0,.06,0,.06a53.53,53.53,0,0,0-4,24.38c2.6,29.43,12.72,58.17,23.44,88.59,3.82,10.83,7.68,21.84,11.27,33.05l57.13,96.93,24.78-42Z"/><path class="cls-3" d="M100.89,513.65c-10.72,30.42-20.84,59.16-23.44,88.59a53.49,53.49,0,0,0,4,24.38l0,.06,0,.06c7.85,18.11,28.09,33.18,54.16,40.33l.15,0,.14,0a112.49,112.49,0,0,0,31,4.25c28,0,54.7-9.71,73.17-26.64,12.67-12,16.35-24.22,11.94-39.74l-.08-.28-.08-.28C246,582,235.71,560.11,224.68,537.12l-30.29,9.47L141,563.29l20.16-52.22,27.62-71.56,5.33-13.81-24.78-42L112.16,480.6C108.57,491.81,104.71,502.82,100.89,513.65Z"/><path class="cls-2" d="M308.23,284.66c11.6-32.31,24.51-64.65,30.17-99.09,9.23-48.43-7.5-92.89-46.52-122.76-65.83-49.76-164.39-47-226.08,7.62-28.26,25.07-43.44,61.5-37,99.19,7.05,39.95,25.86,75.94,42.24,112.19,14.78,32.42,28.18,65.89,30.39,101.86.63-17.94-1.56-36-5.47-53.69C84.12,274.9,55.39,223.46,50.5,167.15a80.59,80.59,0,0,1,6.2-37.29c12.57-29,41.88-47.44,71.81-55.64,44.19-12.65,96.27-2.42,130,28.57C278,121.18,285.33,143.93,278,169.71c-8.43,32.28-24.41,62-39,93.3l-1.46-.46-51.2-16L214,318.11l23.81,61.68.53,1.38,1.94-1.32,47.33-32.12,70.14-47.6Z"/><path class="cls-4" d="M77.45,602.24a53.49,53.49,0,0,0,4,24.38l0,.06,0,.06c7.85,18.11,28.09,33.18,54.16,40.33l.15,0,.14,0a112.49,112.49,0,0,0,31,4.25c28,0,54.7-9.71,73.17-26.64,12.67-12,16.35-24.22,11.94-39.74l-.08-.28-.08-.28C246,582,235.71,560.11,224.68,537.12l-30.29,9.47L141,563.29"/><path class="cls-4" d="M194.39,220.76l30.29,9.47"/><path class="cls-4" d="M100.89,253.69c3.82,10.83,7.68,21.84,11.27,33.05l57.13,96.93,24.78-42-5.33-13.8-27.62-71.57"/><path class="cls-4" d="M81.49,140.6l0,.06"/><path class="cls-4" d="M135.94,100.19l-.14,0"/><path class="cls-4" d="M251.94,162.6l.08-.28"/></svg>